<?xml version="1.0" standalone="no"?>
<!DOCTYPE svg PUBLIC "-//W3C//DTD SVG 20010904//EN"
 "http://www.w3.org/TR/2001/REC-SVG-20010904/DTD/svg10.dtd">
<svg version="1.0" xmlns="http://www.w3.org/2000/svg"
 width="2000.000000pt" height="2000.000000pt" viewBox="0 0 2000.000000 2000.000000"
 preserveAspectRatio="xMidYMid meet">
<metadata>
Created by potrace 1.14, written by Peter Selinger 2001-2017
</metadata>
<g transform="translate(0.000000,2000.000000) scale(0.100000,-0.100000)"
fill="#000000" stroke="none">
<path d="M12843 17573 c3 -10 30 -81 61 -158 305 -779 318 -1741 36 -2769
-339 -1234 -1058 -2186 -2270 -3002 -96 -65 -174 -122 -172 -127 3 -12 1141
-1708 1157 -1725 9 -10 182 117 870 643 471 360 859 655 860 655 2 0 115 -174
251 -387 136 -214 253 -395 261 -403 12 -13 36 7 191 165 246 250 419 462 599
730 452 677 725 1473 830 2415 24 217 24 670 0 873 -23 192 -50 339 -93 511
-296 1180 -1166 2094 -2423 2545 -78 28 -146 51 -152 51 -6 0 -9 -8 -6 -17z"/>
<path d="M8485 16454 c-292 -34 -517 -131 -745 -319 -270 -224 -440 -571 -440
-898 0 -281 144 -592 540 -1169 73 -106 134 -194 135 -196 4 -5 287 179 422
274 213 152 329 248 484 403 254 255 381 459 454 733 133 498 -79 982 -496
1129 -108 39 -245 55 -354 43z"/>
<path d="M6286 9384 c-622 -350 -1011 -920 -1055 -1545 -30 -432 104 -814 384
-1094 522 -522 1472 -521 2225 3 103 72 300 237 300 252 0 13 -1733 2433
-1745 2437 -6 2 -55 -22 -109 -53z"/>
<path d="M15425 8809 c-187 -144 -351 -269 -363 -278 l-24 -17 155 -242 155
-241 -866 -632 c-477 -347 -875 -639 -885 -648 -16 -16 52 -121 1293 -1994
720 -1088 1310 -1980 1310 -1982 0 -3 -1129 -5 -2509 -5 l-2510 0 -476 679
-477 679 -151 -112 c-761 -567 -1613 -970 -2511 -1191 -1143 -280 -2325 -249
-3349 89 -103 34 -187 60 -187 58 0 -13 179 -303 245 -397 430 -613 1031
-1115 1734 -1447 1599 -755 3620 -679 5383 203 398 199 821 462 1136 706 45
35 86 62 91 59 5 -3 222 -310 482 -681 l474 -675 2512 0 c1382 0 2513 2 2513
5 0 2 -541 820 -1202 1817 -660 997 -1252 1890 -1314 1985 l-112 171 883 644
c486 353 884 645 884 648 1 11 -1955 3054 -1964 3056 -5 2 -163 -114 -350
-257z"/>
</g>
</svg>
